<?xml version="1.0" encoding="iso-8859-1"?>
<!-- Uploaded to: SVG Repo, www.svgrepo.com, Generator: SVG Repo Mixer Tools -->
<svg fill="#000000" height="800px" width="800px" version="1.1" id="Layer_1" xmlns="http://www.w3.org/2000/svg" xmlns:xlink="http://www.w3.org/1999/xlink" 
	 viewBox="0 0 457.822 457.822" xml:space="preserve">
<g id="XMLID_479_">
	<g>
		<g>
			<path d="M457.757,314.792c-0.793-41.923-9.194-91.07-19.978-116.863c-15.956-38.128-52.971-62.765-94.298-62.765
				c-13.544,0-26.791,2.67-39.368,7.933c-15.12,6.319-28.424,16.122-38.863,28.573h-21.704v-37.378
				c0-39.15,31.852-71.001,71.001-71.001h70.204c8.106,0,14.677-6.571,14.677-14.677s-6.571-14.677-14.677-14.677h-70.204
				c-55.337,0-100.355,45.019-100.355,100.355v37.378h-21.619c-10.44-12.452-23.743-22.254-38.859-28.571
				c-12.583-5.266-25.83-7.935-39.373-7.935c-41.326,0-78.34,24.637-94.3,62.77C9.257,223.723,0.857,272.87,0.065,314.792
				c-0.47,24.877,1.592,45.989,6.129,62.751c6.066,22.41,16.652,36.912,31.455,43.098c5.143,2.152,10.751,3.244,16.669,3.244
				c32.918,0,70.221-33.552,97.144-63.78h154.904c26.921,30.226,64.22,63.776,97.138,63.78c0.001,0,0.003,0,0.005,0
				c5.915,0,11.522-1.091,16.659-3.241c14.81-6.189,25.395-20.691,31.461-43.102C456.165,360.781,458.226,339.668,457.757,314.792z
				 M408.842,393.562c-1.557,0.652-3.301,0.969-5.333,0.969c0,0-0.001,0-0.002,0c-17.671-0.002-48.092-22.495-79.39-58.701
				c-2.787-3.225-6.841-5.079-11.103-5.079h-168.2c-4.263,0-8.316,1.854-11.103,5.079c-31.3,36.208-61.722,58.701-79.393,58.701
				c-2.034,0-3.78-0.317-5.344-0.971c-9.629-4.024-20.53-26.922-19.56-78.213c0.819-43.356,9.735-87.02,17.706-106.085
				c11.376-27.181,37.762-44.745,67.22-44.745c9.633,0,19.068,1.904,28.049,5.663c12.49,5.22,23.234,13.764,31.071,24.71
				c2.756,3.849,7.2,6.133,11.934,6.133h87.034c4.735,0,9.178-2.284,11.934-6.133c7.836-10.946,18.58-19.491,31.076-24.713
				c8.975-3.756,18.41-5.66,28.043-5.66c29.46,0,55.845,17.563,67.219,44.739c7.973,19.071,16.889,62.734,17.709,106.091
				C429.377,366.638,418.476,389.536,408.842,393.562z"/>
			<path d="M140.825,235.902H118.02v-22.805c0-8.106-6.571-14.677-14.677-14.677s-14.677,6.571-14.677,14.677v22.805H65.862
				c-8.106,0-14.677,6.571-14.677,14.677c0,8.106,6.571,14.677,14.677,14.677h22.805v22.805c0,8.106,6.571,14.677,14.677,14.677
				c8.106,0,14.677-6.571,14.677-14.677v-22.805h22.805c8.106,0,14.677-6.571,14.677-14.677
				C155.502,242.473,148.931,235.902,140.825,235.902z"/>
			<path d="M353.936,193.994c-31.201,0-56.585,25.384-56.585,56.585s25.384,56.585,56.585,56.585s56.585-25.384,56.585-56.585
				S385.137,193.994,353.936,193.994z M353.936,277.811c-15.015,0-27.232-12.216-27.232-27.232
				c0-15.015,12.216-27.231,27.232-27.231c15.015,0,27.232,12.216,27.232,27.231C381.168,265.595,368.952,277.811,353.936,277.811z"
				/>
		</g>
	</g>
</g>
</svg>