<svg xmlns="http://www.w3.org/2000/svg" width="1em" height="1em" viewBox="0 0 24 24"><g fill="#ff0a6f"><path fill-rule="evenodd" d="m7.6 7.312l.002.002q.29.243.428.37l.057.055l.038.043c.192.253.12.48-.21.657a2.1 2.1 0 0 1-.747.198c-.212 0-.286-.078-.286-.078l-.044-.037c-.105-.085-.226-.184-.783-1.123q-.592-.87-1.188-1.74a29 29 0 0 0-.45-.65c-.047-.042-.046-.04 1.548 2.665c.205.45.116.672.07.785a.2.2 0 0 0-.02.067c.001.163-.046.249-.258.474c-.354.375-.513.796-.627 1.669c-.128.977-.488 1.667-1.487 2.848c-.584.692-.68.82-.827 1.098c-.186.35-.237.547-.258.99c-.021.47.021.772.172 1.22c.132.392.27.652.622 1.17c.305.447.48.78.48.91c0 .102.02.103.492.002c1.128-.242 2.044-.667 2.56-1.188c.318-.323.393-.5.396-.943c0-.29-.01-.35-.092-.516c-.134-.27-.378-.496-.916-.844c-.705-.458-1.006-.825-1.089-1.332c-.068-.415.011-.708.4-1.483c.404-.803.504-1.145.572-1.954c.044-.523.105-.729.263-.894c.165-.173.313-.231.722-.284c.666-.086 1.09-.25 1.438-.555c.302-.265.43-.519.449-.903l.014-.29l-.169-.187C8.26 6.857 2.35 2 2.312 2c-.007 0 .194.24.448.532c2.265 2.61 4.005 4.075 4.84 4.78m-3.425 8.824a.5.5 0 0 0-.166-.677c-.219-.138-.559-.073-.559.106q0 .027.013.053l.008.014a.1.1 0 0 0 .031.031l.028.02l.025.012c.121.06.13.126.034.262c-.097.138-.089.26.022.342c.179.133.431.06.564-.163" clip-rule="evenodd"/><path d="M8.12 3.42c-.035-.01-.007-.016.063-.026c.247-.037.829.012 1.229.103c.935.211 1.786.751 2.694 1.711l.241.255l.345-.052c1.455-.222 2.934-.046 4.172.496c.34.15.877.447.944.523c.022.024.06.181.087.348c.091.578.046 1.021-.14 1.353a1 1 0 0 0-.063.128l-.013.036c-.02.073-.006.131.037.227c.054.123.206.214.356.214c.308 0 .638-.472.792-1.129l.061-.26l.121.13c.661.711 1.181 1.682 1.27 2.372l.024.18l-.111-.163a2.1 2.1 0 0 0-.63-.629c-.444-.278-.914-.373-2.158-.436c-1.123-.056-1.759-.147-2.389-.342c-1.073-.332-1.613-.773-2.887-2.36c-.566-.705-.916-1.094-1.263-1.408c-.791-.714-1.568-1.087-2.562-1.234a3 3 0 0 1-.22-.037"/><path d="M18.061 5.03c.03-.472.096-.783.232-1.068c.054-.113.104-.204.112-.204a.7.7 0 0 1-.052.185c-.098.275-.115.653-.047 1.092c.087.558.135.638.756 1.24c.29.282.63.638.753.791l.223.278l-.223-.198c-.274-.244-.901-.717-1.04-.785a.3.3 0 0 0-.082-.032h-.022c-.019.005-.035.018-.06.042c-.053.05-.064.125-.072.479c-.01.553-.09.907-.282 1.262c-.103.192-.12.15-.026-.066c.07-.162.077-.232.077-.767c-.002-1.075-.136-1.334-.925-1.776a8 8 0 0 0-.731-.36a3 3 0 0 1-.357-.165c.022-.022.79.191 1.1.305c.46.168.537.19.593.169c.037-.013.056-.117.073-.421M8.048 4.206c-.075.83.268 1.94.823 2.664c.43.562 1.095.997 1.587 1.04c.322.027.418-.069.273-.27c-.203-.28-.451-.712-.517-.897a10 10 0 0 1-.197-.753c-.232-1.023-.459-1.42-.984-1.723c-.19-.11-.6-.255-.837-.296l-.125-.022zm9.342 8.053c-2.59-.99-3.502-1.849-3.502-3.298c0-.213.007-.388.017-.388s.11.07.223.157c.525.4 1.113.57 2.74.795c.958.133 1.498.24 1.995.397c1.58.497 2.56 1.506 2.792 2.882c.068.4.028 1.149-.082 1.544c-.087.312-.352.874-.422.895q-.014.003-.025-.037a.6.6 0 0 1-.018-.124c-.027-.516-.302-1.018-.763-1.395c-.525-.428-1.231-.77-2.955-1.428m-1.944-.11c.037.103.093.338.125.52c.208 1.172-.44 2.119-1.7 2.486a4 4 0 0 1-.283.062q-.176.035-.353.065l-.233.04l-.3.05c-1.03.162-1.49.278-1.952.489c-.328.15-.725.374-.7.396q.006.005.044-.003c.031-.007.075-.02.121-.034c.583-.195 1.231-.295 2.217-.344c.141-.006.29-.015.43-.024l.186-.013l.19-.014l.083-.007l.098-.01c.878-.105 1.487-.358 1.96-.815c.263-.254.42-.49.546-.825c.08-.212.09-.29.092-.666c0-.382-.01-.452-.096-.687c-.114-.309-.248-.54-.418-.722l-.123-.13z"/><path d="M16.758 14.67c-.344-.703-.423-1.38-.235-2.012c.02-.068.053-.123.073-.123a.3.3 0 0 1 .079.033q.047.025.1.06c.16.1.478.271 1.325.71c1.057.547 1.66.97 2.07 1.455a3.1 3.1 0 0 1 .688 1.494c.06.334.025 1.136-.065 1.472c-.285 1.058-.945 1.89-1.888 2.375q-.133.073-.275.13q-.005-.001.003-.026l.012-.033c.019-.05.054-.126.096-.21c.318-.63.354-1.241.114-1.923c-.147-.416-.446-.925-1.05-1.785c-.702-1-.875-1.265-1.047-1.618m-6.481 2.302c-1.09.168-2.285.715-3.246 1.485l-.286.23l.25.037c1.313.193 1.667.366 2.577 1.256c.524.512.7.626 1.135.731c.638.155 1.267-.13 1.483-.67c.096-.241.083-.64-.027-.841c-.263-.478-1.03-.633-1.4-.283c-.309.292-.219.732.165.807c.087.017.085.013-.023-.033c-.168-.072-.24-.172-.242-.331c-.002-.373.448-.583.867-.403c.306.131.428.302.428.603c0 .463-.415.812-.898.754a1.35 1.35 0 0 1-.744-.369c-.426-.456-.26-1.178.335-1.454c.453-.211 1.055-.16 1.522.13c.535.334.764.638 1.225 1.638c.151.325.344.692.431.815c.438.62.961.926 1.593.926c.348 0 .61-.06.94-.217c.244-.116.591-.336.566-.36a1 1 0 0 0-.225.067c-.69.255-1.39.237-1.798-.046c-.256-.178-.462-.532-.569-.975a21 21 0 0 1-.135-.754c-.141-.856-.277-1.24-.594-1.681c-.324-.452-.947-.832-1.644-1c-.435-.106-1.217-.135-1.686-.062"/><path fill-rule="evenodd" d="M8.752 10.356c.094-.33.398-.644.71-.735c.199-.058.61-.021.803.072c.375.181.646.593.588.89c-.072.362-.692.651-1.404.656c-.363.003-.498-.044-.636-.22c-.086-.109-.118-.463-.061-.663m1.418-.533c.186.108.235.268.125.416c-.076.102-.31.198-.482.198c-.256 0-.537-.173-.537-.33c0-.32.538-.49.894-.284" clip-rule="evenodd"/></g></svg>