<!DOCTYPE svg PUBLIC "-//W3C//DTD SVG 1.1//EN" "http://www.w3.org/Graphics/SVG/1.1/DTD/svg11.dtd">
<!-- Uploaded to: SVG Repo, www.svgrepo.com, Transformed by: SVG Repo Mixer Tools -->
<svg fill="#ff7b00" height="800px" width="800px" version="1.1" id="Capa_1" xmlns="http://www.w3.org/2000/svg" xmlns:xlink="http://www.w3.org/1999/xlink" viewBox="0 0 470 470" xml:space="preserve" stroke="#ff7b00">
<g id="SVGRepo_bgCarrier" stroke-width="0"/>
<g id="SVGRepo_tracerCarrier" stroke-linecap="round" stroke-linejoin="round"/>
<g id="SVGRepo_iconCarrier"> <g> <path d="M235,120.918c4.143,0,7.5-3.358,7.5-7.5V7.5c0-4.142-3.357-7.5-7.5-7.5s-7.5,3.358-7.5,7.5v105.918 C227.5,117.561,230.857,120.918,235,120.918z"/> <path d="M265.04,120.918c4.143,0,7.5-3.358,7.5-7.5V7.5c0-4.142-3.357-7.5-7.5-7.5s-7.5,3.358-7.5,7.5v105.918 C257.54,117.561,260.897,120.918,265.04,120.918z"/> <path d="M212.46,137.85V29.288c0-4.142-3.357-7.5-7.5-7.5s-7.5,3.358-7.5,7.5v115.503c0,4.142,3.357,7.5,7.5,7.5 c19.416,0,35.213,15.798,35.213,35.216c0,4.142,3.357,7.5,7.5,7.5s7.5-3.358,7.5-7.5 C255.173,162.366,236.603,141.481,212.46,137.85z"/> <path d="M295.08,32.682c-4.143,0-7.5,3.358-7.5,7.5v125.65c0,18.713-10.075,36.167-26.293,45.549 c-3.585,2.074-4.811,6.663-2.736,10.248c1.391,2.403,3.909,3.746,6.499,3.746c1.274,0,2.566-0.326,3.749-1.009 c0.601-0.348,1.194-0.706,1.781-1.071V462.5c0,4.142,3.357,7.5,7.5,7.5s7.5-3.358,7.5-7.5V210.611 c10.769-12.201,17-28.098,17-44.779V40.182C302.58,36.04,299.223,32.682,295.08,32.682z"/> <path d="M208.713,211.381c-16.218-9.382-26.293-26.835-26.293-45.549V84.028c0-4.142-3.357-7.5-7.5-7.5s-7.5,3.358-7.5,7.5v81.804 c0,22.575,11.405,43.721,30.037,56.2V462.5c0,4.142,3.357,7.5,7.5,7.5s7.5-3.358,7.5-7.5V217.874 C212.457,215.196,211.03,212.722,208.713,211.381z"/> <path d="M84.799,243.452c4.143,0,7.5-3.358,7.5-7.5V130.034c0-4.142-3.357-7.5-7.5-7.5s-7.5,3.358-7.5,7.5v105.918 C77.299,240.094,80.656,243.452,84.799,243.452z"/> <path d="M114.839,243.452c4.143,0,7.5-3.358,7.5-7.5V130.034c0-4.142-3.357-7.5-7.5-7.5s-7.5,3.358-7.5,7.5v105.918 C107.339,240.094,110.696,243.452,114.839,243.452z"/> <path d="M62.259,260.383V151.822c0-4.142-3.357-7.5-7.5-7.5s-7.5,3.358-7.5,7.5v115.502c0,4.142,3.357,7.5,7.5,7.5 c19.416,0,35.213,15.798,35.213,35.216c0,4.142,3.357,7.5,7.5,7.5s7.5-3.358,7.5-7.5C104.972,284.9,86.401,264.015,62.259,260.383z "/> <path d="M144.879,155.216c-4.143,0-7.5,3.358-7.5,7.5v125.65c0,18.713-10.075,36.167-26.293,45.549 c-3.585,2.074-4.811,6.662-2.736,10.248c1.391,2.403,3.909,3.746,6.499,3.746c1.274,0,2.566-0.326,3.749-1.01 c0.601-0.348,1.194-0.706,1.781-1.071V462.5c0,4.142,3.357,7.5,7.5,7.5s7.5-3.358,7.5-7.5V333.144c10.769-12.2,17-28.098,17-44.778 v-125.65C152.379,158.574,149.021,155.216,144.879,155.216z"/> <path d="M58.512,333.916c-16.218-9.383-26.293-26.836-26.293-45.549v-81.804c0-4.142-3.357-7.5-7.5-7.5s-7.5,3.358-7.5,7.5v81.804 c0,22.574,11.405,43.72,30.037,56.199V462.5c0,4.142,3.357,7.5,7.5,7.5s7.5-3.358,7.5-7.5V340.407 C62.256,337.73,60.829,335.256,58.512,333.916z"/> <path d="M385.201,183.452c4.143,0,7.5-3.358,7.5-7.5V70.034c0-4.142-3.357-7.5-7.5-7.5s-7.5,3.358-7.5,7.5v105.918 C377.701,180.094,381.059,183.452,385.201,183.452z"/> <path d="M355.161,62.534c-4.143,0-7.5,3.358-7.5,7.5v105.918c0,4.142,3.357,7.5,7.5,7.5s7.5-3.358,7.5-7.5V70.034 C362.661,65.892,359.304,62.534,355.161,62.534z"/> <path d="M422.741,207.324V91.822c0-4.142-3.357-7.5-7.5-7.5s-7.5,3.358-7.5,7.5v108.562c-24.143,3.631-42.713,24.517-42.713,49.657 c0,4.142,3.357,7.5,7.5,7.5s7.5-3.358,7.5-7.5c0-19.418,15.797-35.216,35.213-35.216 C419.384,214.824,422.741,211.466,422.741,207.324z"/> <path d="M358.914,273.916c-16.218-9.383-26.293-26.836-26.293-45.549v-125.65c0-4.142-3.357-7.5-7.5-7.5s-7.5,3.358-7.5,7.5v125.65 c0,16.68,6.231,32.578,17,44.778V462.5c0,4.142,3.357,7.5,7.5,7.5s7.5-3.358,7.5-7.5V285.828c0.588,0.365,1.18,0.723,1.781,1.071 c1.183,0.685,2.475,1.01,3.749,1.01c2.59,0,5.108-1.343,6.499-3.746C363.725,280.578,362.499,275.99,358.914,273.916z"/> <path d="M445.281,139.062c-4.143,0-7.5,3.358-7.5,7.5v81.804c0,18.713-10.075,36.167-26.293,45.549 c-2.317,1.34-3.744,3.814-3.744,6.492V462.5c0,4.142,3.357,7.5,7.5,7.5s7.5-3.358,7.5-7.5V284.565 c18.632-12.479,30.037-33.625,30.037-56.199v-81.804C452.781,142.42,449.424,139.062,445.281,139.062z"/> </g> </g>
</svg>